<svg width="948" height="541" viewBox="0 0 948 541" fill="none" xmlns="http://www.w3.org/2000/svg">
<g clip-path="url(#clip0)">
<path d="M830.729 499.096C861.215 472.038 861.215 428.168 830.729 401.11C800.243 374.052 750.815 374.052 720.329 401.11C689.843 428.168 689.843 472.038 720.329 499.096C750.815 526.154 800.243 526.154 830.729 499.096Z" fill="#2F2E41"/>
<path d="M775.094 456.476C789.481 453.65 798.562 441.007 795.378 428.238C792.193 415.469 777.949 407.409 763.562 410.235C749.175 413.061 740.093 425.704 743.278 438.473C746.462 451.243 760.707 459.303 775.094 456.476Z" fill="white"/>
<path d="M760.442 434.947C765.237 434.005 768.264 429.791 767.203 425.534C766.141 421.278 761.393 418.591 756.597 419.533C751.802 420.475 748.775 424.69 749.836 428.946C750.898 433.203 755.646 435.889 760.442 434.947Z" fill="#3F3D56"/>
<path d="M772.445 403.262C740.519 403.209 718.107 398.148 718.16 372.476C718.214 346.804 744.138 326.035 776.064 326.087C807.99 326.14 833.828 346.993 833.775 372.665C833.721 398.338 804.371 403.314 772.445 403.262Z" fill="#5273EB"/>
<path d="M897.883 461.684C888.726 489.881 861.987 509.619 834.095 526.386C830.2 528.727 826.304 531.015 822.408 533.249C822.381 533.259 822.354 533.281 822.327 533.291C822.14 533.398 821.952 533.505 821.777 533.613C820.973 534.073 820.168 534.534 819.371 534.989L819.809 535.163C819.809 535.163 820.239 535.366 819.768 535.196C819.628 535.144 819.482 535.097 819.342 535.045C803.138 529.245 786.647 523.017 774.229 512.151C761.348 500.867 753.82 483.17 760.795 468.347C761.712 466.405 762.87 464.56 764.248 462.846C764.814 462.128 765.423 461.44 766.057 460.765C769.905 456.597 774.934 453.414 780.627 451.543C786.32 449.672 792.472 449.181 798.45 450.119C804.428 451.058 810.016 453.393 814.64 456.884C819.264 460.375 822.757 464.896 824.76 469.983C826.809 453.049 811.077 438.864 795.937 428.398C780.79 417.937 763.58 406.545 760.651 389.706C759.016 380.336 762.687 371.256 769.374 363.967C769.581 363.746 769.788 363.524 770.001 363.309C778.141 354.82 789.59 349.368 802.061 348.043C825.287 345.901 847.847 356.812 864.719 371.145C891.876 394.205 908.294 429.625 897.883 461.684Z" fill="#E6E6E6"/>
<path d="M854.228 424.804C858.685 430.959 862.108 437.658 864.387 444.69C866.314 450.975 867.172 457.48 866.932 463.99C866.31 477.386 862.073 490.454 854.576 502.094C848.929 510.925 842.048 519.087 834.095 526.386C830.2 528.727 826.305 531.015 822.408 533.249C822.381 533.259 822.354 533.281 822.327 533.291C822.14 533.398 821.952 533.505 821.777 533.613C820.973 534.073 820.169 534.534 819.371 534.989C819.371 534.989 820.239 535.366 819.769 535.196C819.628 535.144 819.482 535.097 819.342 535.045C820.794 524.477 819.371 513.754 815.193 503.775C811.015 493.796 804.202 484.851 795.326 477.69C786.429 470.638 775.781 465.552 764.248 462.846C764.814 462.128 765.423 461.44 766.058 460.765C770.512 461.874 774.847 463.329 779.012 465.116C793.901 471.462 806.092 481.894 813.781 494.868C820.681 506.649 823.651 519.933 822.341 533.16C823.007 532.624 823.673 532.077 824.32 531.535C836.633 521.346 847.569 509.651 854.971 496.155C861.392 484.724 864.548 472.068 864.16 459.301C863.556 445.38 857.307 432.485 848.258 421.259C838.341 409.283 826.626 398.566 813.437 389.407C800.146 379.959 785.602 371.989 770.13 365.677C769.781 365.532 769.508 365.274 769.367 364.956C769.226 364.638 769.229 364.284 769.374 363.967C769.478 363.683 769.703 363.447 770.001 363.309C770.155 363.25 770.321 363.223 770.489 363.229C770.656 363.236 770.819 363.275 770.966 363.346C772.877 364.126 774.774 364.917 776.656 365.743C792.33 372.619 806.981 381.197 820.272 391.279C833.11 400.994 845.197 412.093 854.228 424.804Z" fill="white"/>
<path d="M133.615 539.831C144.53 539.831 153.378 536.886 153.378 533.253C153.378 529.62 144.53 526.675 133.615 526.675C122.7 526.675 113.852 529.62 113.852 533.253C113.852 536.886 122.7 539.831 133.615 539.831Z" fill="#2F2E41"/>
<path d="M181.046 538.954C191.961 538.954 200.81 536.009 200.81 532.376C200.81 528.743 191.961 525.798 181.046 525.798C170.132 525.798 161.283 528.743 161.283 532.376C161.283 536.009 170.132 538.954 181.046 538.954Z" fill="#2F2E41"/>
<path d="M244.014 428.393C262.69 418.837 275.09 406.872 271.71 401.668C268.33 396.465 250.451 399.993 231.775 409.548C213.099 419.104 200.699 431.069 204.079 436.273C207.459 441.476 225.338 437.948 244.014 428.393Z" fill="#2F2E41"/>
<path d="M226.483 451.823C233.389 414.052 204.488 378.462 161.931 372.333C119.374 366.203 79.2759 391.855 72.3698 429.626C65.4637 467.398 94.3648 502.988 136.922 509.117C179.479 515.247 219.577 489.595 226.483 451.823Z" fill="#2F2E41"/>
<path d="M137.567 495.102H113.852V532.815H137.567V495.102Z" fill="#2F2E41"/>
<path d="M184.999 495.102H161.283V532.815H184.999V495.102Z" fill="#2F2E41"/>
<path d="M151.401 446.864C166.136 446.864 178.081 436.262 178.081 423.184C178.081 410.106 166.136 399.504 151.401 399.504C136.666 399.504 124.721 410.106 124.721 423.184C124.721 436.262 136.666 446.864 151.401 446.864Z" fill="white"/>
<path d="M151.403 431.077C156.315 431.077 160.297 427.543 160.297 423.184C160.297 418.824 156.315 415.29 151.403 415.29C146.492 415.29 142.51 418.824 142.51 423.184C142.51 427.543 146.492 431.077 151.403 431.077Z" fill="#3F3D56"/>
<path d="M73.701 376.29C67.3976 351.235 87.547 325.918 118.706 319.743C149.865 313.568 180.234 328.873 186.537 353.928C192.84 378.983 172.19 388.224 141.031 394.399C109.873 400.574 80.0043 401.345 73.701 376.29Z" fill="#E6E6E6"/>
<path d="M96.765 423.421C99.665 417.994 86.2265 406.948 66.7491 398.749C47.2718 390.55 29.1314 388.303 26.2314 393.73C23.3314 399.157 36.7699 410.203 56.2472 418.402C75.7246 426.601 93.865 428.848 96.765 423.421Z" fill="#2F2E41"/>
<path d="M111.08 465.721C111.08 472.502 130.753 485.893 152.583 485.893C174.413 485.893 194.881 466.801 194.881 460.02C194.881 453.239 174.413 461.336 152.583 461.336C130.753 461.336 111.08 458.939 111.08 465.721Z" fill="white"/>
<path d="M421.63 539.831C432.545 539.831 441.394 536.886 441.394 533.253C441.394 529.62 432.545 526.675 421.63 526.675C410.715 526.675 401.867 529.62 401.867 533.253C401.867 536.886 410.715 539.831 421.63 539.831Z" fill="#2F2E41"/>
<path d="M374.201 538.954C385.116 538.954 393.964 536.009 393.964 532.376C393.964 528.743 385.116 525.798 374.201 525.798C363.286 525.798 354.438 528.743 354.438 532.376C354.438 536.009 363.286 538.954 374.201 538.954Z" fill="#2F2E41"/>
<path d="M351.167 436.272C354.547 431.069 342.147 419.104 323.471 409.548C304.795 399.993 286.916 396.465 283.536 401.668C280.156 406.872 292.556 418.837 311.232 428.392C329.908 437.948 347.787 441.476 351.167 436.272Z" fill="#2F2E41"/>
<path d="M405.821 510.011C448.935 510.011 483.885 478.991 483.885 440.725C483.885 402.459 448.935 371.438 405.821 371.438C362.707 371.438 327.756 402.459 327.756 440.725C327.756 478.991 362.707 510.011 405.821 510.011Z" fill="#2F2E41"/>
<path d="M441.394 495.102H417.678V532.815H441.394V495.102Z" fill="#2F2E41"/>
<path d="M393.964 495.102H370.248V532.815H393.964V495.102Z" fill="#2F2E41"/>
<path d="M387.53 446.864C402.265 446.864 414.21 436.262 414.21 423.184C414.21 410.106 402.265 399.504 387.53 399.504C372.795 399.504 360.85 410.106 360.85 423.184C360.85 436.262 372.795 446.864 387.53 446.864Z" fill="white"/>
<path d="M381.102 425.527C384.587 422.437 384.609 417.442 381.152 414.371C377.695 411.3 372.068 411.315 368.583 414.405C365.098 417.496 365.076 422.49 368.533 425.561C371.99 428.632 377.617 428.617 381.102 425.527Z" fill="#3F3D56"/>
<path d="M414.215 394.399C383.056 388.224 362.406 378.983 368.71 353.928C375.013 328.873 405.382 313.567 436.541 319.743C467.7 325.918 487.849 351.235 481.546 376.29C475.242 401.345 445.374 400.574 414.215 394.399Z" fill="#5273EB"/>
<path d="M487.455 493.54C493.995 491.998 494.811 475.757 489.278 457.265C483.744 438.773 473.956 425.033 467.415 426.575C460.874 428.117 460.058 444.357 465.592 462.849C471.126 481.341 480.914 495.081 487.455 493.54Z" fill="#2F2E41"/>
<path d="M388.135 461.336C373.803 461.336 360.365 453.24 360.365 460.021C360.365 466.802 373.803 485.894 388.135 485.894C402.467 485.894 415.382 472.503 415.382 465.722C415.382 458.94 402.466 461.336 388.135 461.336Z" fill="white"/>
<path d="M287.249 325.845H280.316C274.106 325.839 268.152 323.646 263.761 319.749C259.369 315.851 256.899 310.567 256.892 305.055V299.889C256.892 287.094 259.624 276.381 265.011 268.047C271.54 258.353 279.156 249.27 287.745 240.936C293.446 235.847 298.62 230.312 303.203 224.399C306.49 219.806 308.188 214.457 308.085 209.015C308.085 196.18 298.663 189.941 279.281 189.941C268.529 190.049 257.846 191.472 247.533 194.17C243.555 195.178 239.369 195.352 235.302 194.68C231.236 194.008 227.401 192.507 224.099 190.296C220.797 188.085 218.118 185.224 216.274 181.938C214.429 178.652 213.469 175.031 213.469 171.36V160.903C213.446 156.401 214.895 151.99 217.64 148.205C220.385 144.42 224.309 141.422 228.935 139.576C247.149 132.677 266.792 129.247 286.594 129.509C307.338 129.509 326.065 132.601 342.254 138.699C358.473 144.812 371.287 153.431 380.34 164.318C389.365 175.127 394.162 188.259 394 201.713C394 216.16 389.556 228.743 380.792 239.112C372.124 249.376 359.697 260.612 343.858 272.511C335.513 278.671 327.604 285.283 320.179 292.31C315.383 296.895 311.993 302.496 310.334 308.577C309.41 313.414 306.583 317.804 302.357 320.965C298.13 324.127 292.777 325.856 287.249 325.845Z" fill="#5273EB"/>
<path d="M283.394 423.614H282.48C270.971 423.607 259.935 419.545 251.8 412.319C243.664 405.094 239.094 395.296 239.094 385.081C239.094 374.866 243.664 365.069 251.8 357.843C259.935 350.618 270.971 346.555 282.48 346.549H283.394C289.098 346.545 294.746 347.54 300.017 349.475C305.287 351.41 310.077 354.247 314.111 357.826C318.145 361.404 321.346 365.653 323.529 370.33C325.713 375.006 326.837 380.019 326.837 385.081C326.837 390.144 325.713 395.156 323.529 399.833C321.346 404.509 318.145 408.758 314.111 412.337C310.077 415.915 305.287 418.753 300.017 420.688C294.746 422.623 289.098 423.617 283.394 423.614Z" fill="#5273EB"/>
<path d="M565.537 540.557H1.81262C1.33188 540.557 0.870862 540.387 0.53093 540.085C0.190998 539.784 0 539.375 0 538.948C0 538.521 0.190998 538.112 0.53093 537.81C0.870862 537.509 1.33188 537.339 1.81262 537.339H565.537C566.018 537.339 566.479 537.509 566.819 537.81C567.159 538.112 567.35 538.521 567.35 538.948C567.35 539.375 567.159 539.784 566.819 540.085C566.479 540.387 566.018 540.557 565.537 540.557Z" fill="#CCCCCC"/>
<path d="M946.188 540.557H645.293C644.812 540.557 644.351 540.387 644.011 540.085C643.671 539.784 643.48 539.375 643.48 538.948C643.48 538.521 643.671 538.112 644.011 537.81C644.351 537.509 644.812 537.339 645.293 537.339H946.188C946.669 537.339 947.13 537.509 947.47 537.81C947.81 538.112 948.001 538.521 948.001 538.948C948.001 539.375 947.81 539.784 947.47 540.085C947.13 540.387 946.669 540.557 946.188 540.557Z" fill="#CCCCCC"/>
<path d="M759.436 493.564C780.989 493.19 798.353 488.018 798.221 482.013C798.089 476.008 780.509 471.443 758.957 471.817C737.404 472.191 720.039 477.363 720.171 483.368C720.304 489.373 737.883 493.938 759.436 493.564Z" fill="#2F2E41"/>
<path d="M739.842 239.711H692.713C690.311 239.709 688.007 238.86 686.308 237.352C684.609 235.844 683.653 233.8 683.65 231.667V189.838C683.653 187.706 684.609 185.661 686.308 184.153C688.007 182.645 690.311 181.797 692.713 181.794H739.842C742.244 181.797 744.548 182.645 746.247 184.153C747.946 185.661 748.902 187.706 748.905 189.838V231.667C748.902 233.8 747.946 235.844 746.247 237.352C744.548 238.86 742.244 239.709 739.842 239.711ZM692.713 185.012C691.272 185.013 689.89 185.522 688.87 186.427C687.851 187.332 687.277 188.559 687.276 189.838V231.667C687.277 232.947 687.851 234.174 688.87 235.078C689.89 235.983 691.272 236.492 692.713 236.494H739.842C741.283 236.492 742.666 235.983 743.685 235.078C744.704 234.174 745.278 232.947 745.279 231.667V189.838C745.278 188.559 744.704 187.332 743.685 186.427C742.666 185.522 741.283 185.013 739.842 185.012H692.713Z" fill="#F2F2F2"/>
<path d="M761.594 212.362H714.465C712.063 212.359 709.759 211.511 708.06 210.003C706.361 208.495 705.405 206.45 705.402 204.318V162.489C705.405 160.356 706.361 158.312 708.06 156.804C709.759 155.296 712.063 154.447 714.465 154.445H761.594C763.996 154.447 766.3 155.296 767.999 156.804C769.698 158.312 770.654 160.356 770.657 162.489V204.318C770.654 206.45 769.698 208.495 767.999 210.003C766.3 211.511 763.996 212.359 761.594 212.362ZM714.465 157.662C713.024 157.664 711.641 158.173 710.622 159.078C709.603 159.982 709.029 161.209 709.028 162.489V204.318C709.029 205.597 709.603 206.824 710.622 207.729C711.641 208.634 713.024 209.143 714.465 209.144H761.594C763.035 209.143 764.417 208.634 765.437 207.729C766.456 206.824 767.03 205.597 767.031 204.318V162.489C767.03 161.209 766.456 159.982 765.437 159.078C764.417 158.173 763.035 157.664 761.594 157.662H714.465Z" fill="#F2F2F2"/>
<path d="M390.006 78.8311H342.878C340.475 78.8286 338.171 77.9804 336.472 76.4723C334.773 74.9643 333.817 72.9197 333.814 70.7871V28.9583C333.817 26.8257 334.773 24.7811 336.472 23.2731C338.171 21.765 340.475 20.9167 342.878 20.9143H390.006C392.409 20.9167 394.712 21.765 396.411 23.2731C398.11 24.7811 399.066 26.8257 399.069 28.9583V70.7871C399.066 72.9197 398.11 74.9643 396.411 76.4723C394.712 77.9804 392.409 78.8286 390.006 78.8311ZM342.878 24.1319C341.436 24.1333 340.054 24.6422 339.034 25.5471C338.015 26.4519 337.441 27.6787 337.44 28.9583V70.7871C337.441 72.0667 338.015 73.2935 339.034 74.1983C340.054 75.1031 341.436 75.6121 342.878 75.6135H390.006C391.447 75.6121 392.83 75.1031 393.849 74.1983C394.869 73.2935 395.442 72.0667 395.444 70.7871V28.9583C395.442 27.6787 394.869 26.4519 393.849 25.5471C392.83 24.6422 391.447 24.1333 390.006 24.1319H342.878Z" fill="#F2F2F2"/>
<path d="M361.004 57.9168H313.876C311.473 57.9143 309.169 57.0661 307.47 55.558C305.771 54.05 304.815 52.0054 304.812 49.8728V8.044C304.815 5.91135 305.771 3.86677 307.47 2.35875C309.169 0.850738 311.473 0.00243983 313.876 0H361.004C363.407 0.00243983 365.71 0.850738 367.409 2.35875C369.108 3.86677 370.064 5.91135 370.067 8.044V49.8728C370.064 52.0054 369.108 54.05 367.409 55.558C365.71 57.0661 363.407 57.9143 361.004 57.9168ZM313.876 3.2176C312.434 3.219 311.052 3.72794 310.032 4.63276C309.013 5.53758 308.439 6.76439 308.438 8.044V49.8728C308.439 51.1524 309.013 52.3792 310.032 53.284C311.052 54.1889 312.434 54.6978 313.876 54.6992H361.004C362.445 54.6978 363.828 54.1889 364.847 53.284C365.867 52.3792 366.44 51.1524 366.442 49.8728V8.044C366.44 6.76439 365.867 5.53758 364.847 4.63276C363.828 3.72794 362.445 3.219 361.004 3.2176H313.876Z" fill="#F2F2F2"/>
<path d="M582.251 305.088C588.725 305.088 593.973 300.43 593.973 294.684C593.973 288.938 588.725 284.28 582.251 284.28C575.777 284.28 570.529 288.938 570.529 294.684C570.529 300.43 575.777 305.088 582.251 305.088Z" fill="#F2F2F2"/>
<path d="M110.97 268.085C117.444 268.085 122.692 263.427 122.692 257.682C122.692 251.936 117.444 247.278 110.97 247.278C104.496 247.278 99.248 251.936 99.248 257.682C99.248 263.427 104.496 268.085 110.97 268.085Z" fill="#F2F2F2"/>
<path d="M901.271 358.178C907.745 358.178 912.993 353.52 912.993 347.774C912.993 342.028 907.745 337.37 901.271 337.37C894.797 337.37 889.549 342.028 889.549 347.774C889.549 353.52 894.797 358.178 901.271 358.178Z" fill="#F2F2F2"/>
</g>
<defs>
<clipPath id="clip0">
<rect width="948" height="540.557" fill="white"/>
</clipPath>
</defs>
</svg>
