<svg width="35" height="35" viewBox="0 0 35 35" fill="none" xmlns="http://www.w3.org/2000/svg">
<path d="M34.3628 25.9927C34.0005 25.882 33.6162 26.086 33.5054 26.4487C32.4481 29.9086 28.7832 32.7234 25.3355 32.7234C23.074 32.7234 21.1576 31.2795 21.011 28.9329C21.0166 26.7151 21.9845 24.7477 23.5599 23.1983C25.11 21.6737 27.2448 20.5561 29.4542 20.5561C30.6421 20.5561 31.6732 20.8975 32.4364 21.5434C32.726 21.7884 33.1592 21.7523 33.4043 21.4628C33.6492 21.1733 33.6132 20.74 33.3236 20.495C32.3093 19.6365 30.9712 19.1828 29.4542 19.1828C28.8814 19.1828 28.2997 19.2478 27.7185 19.3734V5.44018C27.7185 4.03927 26.5787 2.89952 25.1778 2.89952H20.6125V2.2823C20.6125 1.08803 19.6409 0.116455 18.4467 0.116455H18.4369C17.2426 0.116455 16.2711 1.08803 16.2711 2.2823V2.89952H10.926V2.2823C10.926 1.08803 9.95448 0.116455 8.76021 0.116455H8.75039C7.55612 0.116455 6.58461 1.08803 6.58461 2.2823V2.89952H2.54066C1.13975 2.89952 0 4.03927 0 5.44018V27.0779C0 28.4788 1.13975 29.6186 2.54066 29.6186H19.7055C19.8454 30.4733 20.17 31.2595 20.6752 31.9413C21.7053 33.3313 23.3604 34.0968 25.3354 34.0968C27.2922 34.0968 29.3535 33.3434 31.1394 31.9754C32.9186 30.6124 34.2254 28.7922 34.8188 26.8501C34.9297 26.4874 34.7255 26.1035 34.3628 25.9927ZM17.6444 2.2823C17.6444 1.84541 18 1.48989 18.4368 1.48989H18.4466C18.8835 1.48989 19.239 1.84534 19.239 2.2823L19.2385 4.97926C19.2385 5.40372 18.8684 5.77613 18.4465 5.77613C18.0208 5.77613 17.6444 5.41381 17.6444 4.98393V2.2823ZM7.95798 2.2823C7.95798 1.84541 8.31343 1.48989 8.75032 1.48989H8.76014C9.19703 1.48989 9.55248 1.84534 9.55248 2.2823L9.55241 4.98406C9.55241 5.40598 9.18227 5.77613 8.75788 5.77613C8.3328 5.774 7.95805 5.41313 7.95805 4.98393V2.2823H7.95798ZM1.37344 5.44018C1.37344 4.79659 1.89706 4.27296 2.54066 4.27296H6.58455V4.98399C6.59986 5.56146 6.81171 6.10094 7.22388 6.51188C7.63117 6.918 8.18604 7.14984 8.76138 7.14984C9.95503 7.14915 10.926 6.17786 10.926 4.98399V4.27296H16.2707V4.98406C16.2707 6.16371 17.2707 7.14977 18.4467 7.14977C19.6409 7.14977 20.6125 6.1782 20.6125 4.98393V4.27296H25.1778C25.8214 4.27296 26.345 4.79659 26.345 5.44018V10.006H1.37344V5.44018ZM1.37344 27.0779V11.3795H26.345V19.7843C22.8989 21.1049 19.8545 24.4475 19.6376 28.2452H2.54066C1.89706 28.2452 1.37344 27.7216 1.37344 27.0779Z" fill="white"/>
<path d="M27.6385 22.8948L26.636 26.1905L24.8533 27.2832C24.53 27.4814 24.4285 27.9042 24.6268 28.2276C24.8223 28.5465 25.2518 28.6499 25.5711 28.4542L27.5759 27.2253C27.7192 27.1375 27.8252 27.0003 27.8741 26.8396L28.9525 23.2945C29.0628 22.9316 28.8582 22.548 28.4953 22.4376C28.1328 22.3273 27.7489 22.5319 27.6385 22.8948Z" fill="white"/>
<path d="M17.7087 25.3237H8.7707C8.3915 25.3237 8.08398 25.6312 8.08398 26.0105C8.08398 26.3897 8.3915 26.6972 8.7707 26.6972H17.7087C18.0879 26.6972 18.3954 26.3897 18.3954 26.0105C18.3954 25.6312 18.088 25.3237 17.7087 25.3237Z" fill="white"/>
<path d="M6.40705 25.7476C6.29422 25.4768 6.015 25.3046 5.72225 25.3257C5.43568 25.3465 5.18846 25.5512 5.11148 25.8274C4.94763 26.4152 5.60571 26.908 6.12556 26.5991C6.41542 26.4269 6.53429 26.058 6.40705 25.7476Z" fill="white"/>
<path d="M17.5599 31.0159H11.5656C11.1864 31.0159 10.8789 31.3233 10.8789 31.7026C10.8789 32.0819 11.1864 32.3893 11.5656 32.3893H17.5599C17.9391 32.3893 18.2466 32.0819 18.2466 31.7026C18.2466 31.3233 17.9391 31.0159 17.5599 31.0159Z" fill="white"/>
<path d="M19.2306 16.9593C19.1497 16.7107 18.9349 16.5295 18.6762 16.4919L15.8905 16.0871L14.6447 13.5628C14.3978 13.0624 13.66 13.0624 13.413 13.5628L12.1672 16.0871L9.38148 16.4919C8.82991 16.572 8.60075 17.2732 9.00084 17.6632L11.0166 19.6281L10.5407 22.4026C10.4466 22.9517 11.0422 23.3868 11.5372 23.1266L14.0289 21.8166L16.5205 23.1266C17.0149 23.3866 17.6111 22.9519 17.5169 22.4026L17.041 19.6281L19.0568 17.6632C19.244 17.4808 19.3113 17.2079 19.2306 16.9593ZM15.8238 18.8966C15.662 19.0544 15.5881 19.2817 15.6263 19.5045L15.9281 21.2634L14.3485 20.4329C14.1483 20.3278 13.9093 20.3278 13.7093 20.4329L12.1297 21.2634L12.4314 19.5045C12.4696 19.2817 12.3957 19.0544 12.2339 18.8966L10.956 17.6509L12.722 17.3943C12.9458 17.3618 13.1391 17.2213 13.2391 17.0187L14.0289 15.4183L14.8187 17.0186C14.9187 17.2213 15.112 17.3618 15.3358 17.3943L17.1018 17.6509L15.8238 18.8966Z" fill="white"/>
<path d="M34.9869 23.2143C34.9126 22.8482 34.5468 22.6014 34.1793 22.6752C33.8132 22.7487 33.5657 23.1156 33.6402 23.4828C33.7146 23.8492 34.0801 24.0952 34.4478 24.0218C34.8133 23.9488 35.0612 23.5803 34.9869 23.2143Z" fill="white"/>
</svg>
