<svg width="37" height="37" viewBox="0 0 37 37" fill="none" xmlns="http://www.w3.org/2000/svg">
<path d="M35.6761 31.9645L33.5313 29.8255V23.125C33.5293 21.8646 33.2107 20.6248 32.6046 19.5197C31.9984 18.4146 31.1243 17.4795 30.0625 16.8003V3.46875C30.0625 3.31542 30.0016 3.16837 29.8932 3.05995C29.7848 2.95153 29.6377 2.89062 29.4844 2.89062H26.5938V1.73438C26.5938 1.58105 26.5328 1.434 26.4244 1.32558C26.316 1.21716 26.169 1.15625 26.0156 1.15625H22.5469C22.3935 1.15625 22.2465 1.21716 22.1381 1.32558C22.0297 1.434 21.9688 1.58105 21.9688 1.73438V2.89062H9.25V1.73438C9.25 1.58105 9.18909 1.434 9.08067 1.32558C8.97225 1.21716 8.8252 1.15625 8.67188 1.15625H5.20313C5.0498 1.15625 4.90275 1.21716 4.79433 1.32558C4.68591 1.434 4.625 1.58105 4.625 1.73438V2.89062H1.73438C1.58105 2.89062 1.434 2.95153 1.32558 3.05995C1.21716 3.16837 1.15625 3.31542 1.15625 3.46875V28.3281C1.15625 28.4815 1.21716 28.6285 1.32558 28.7369C1.434 28.8453 1.58105 28.9062 1.73438 28.9062H18.5V29.8255L16.3552 31.9645C16.2749 32.0458 16.2206 32.1491 16.199 32.2612C16.1774 32.3734 16.1895 32.4894 16.2338 32.5947C16.2763 32.7009 16.3497 32.7918 16.4446 32.8557C16.5394 32.9196 16.6513 32.9536 16.7656 32.9531H22.5989C22.7348 33.7611 23.1526 34.4947 23.7781 35.0238C24.4036 35.5529 25.1964 35.8432 26.0156 35.8432C26.8349 35.8432 27.6277 35.5529 28.2532 35.0238C28.8787 34.4947 29.2965 33.7611 29.4323 32.9531H35.2656C35.38 32.9536 35.4919 32.9196 35.5867 32.8557C35.6815 32.7918 35.755 32.7009 35.7975 32.5947C35.8418 32.4894 35.8539 32.3734 35.8323 32.2612C35.8107 32.1491 35.7563 32.0458 35.6761 31.9645ZM23.125 2.3125H25.4375V4.625C25.4375 4.93166 25.3157 5.22575 25.0988 5.44259C24.882 5.65943 24.5879 5.78125 24.2813 5.78125C23.9746 5.78125 23.6805 5.65943 23.4637 5.44259C23.2468 5.22575 23.125 4.93166 23.125 4.625V2.3125ZM5.78125 2.3125H8.09375V4.625C8.09375 4.93166 7.97193 5.22575 7.75509 5.44259C7.53825 5.65943 7.24416 5.78125 6.9375 5.78125C6.63084 5.78125 6.33675 5.65943 6.11991 5.44259C5.90307 5.22575 5.78125 4.93166 5.78125 4.625V2.3125ZM2.3125 4.04688H4.625V4.625C4.625 5.23831 4.86864 5.82651 5.30232 6.26018C5.73599 6.69386 6.32419 6.9375 6.9375 6.9375C7.55081 6.9375 8.13901 6.69386 8.57269 6.26018C9.00636 5.82651 9.25 5.23831 9.25 4.625V4.04688H21.9688V4.625C21.9688 5.23831 22.2124 5.82651 22.6461 6.26018C23.0797 6.69386 23.6679 6.9375 24.2813 6.9375C24.8946 6.9375 25.4828 6.69386 25.9164 6.26018C26.3501 5.82651 26.5938 5.23831 26.5938 4.625V4.04688H28.9063V8.09375H2.3125V4.04688ZM2.3125 27.75V9.25H28.9063V15.6094C28.9063 14.8427 28.6017 14.1075 28.0596 13.5654C27.5175 13.0233 26.7823 12.7188 26.0156 12.7188C25.249 12.7188 24.5137 13.0233 23.9716 13.5654C23.4296 14.1075 23.125 14.8427 23.125 15.6094V16.1875C21.7568 16.7601 20.588 17.7239 19.7653 18.9581C18.9425 20.1922 18.5024 21.6418 18.5 23.125V27.75H2.3125ZM27.75 15.6094V15.8175C26.6104 15.54 25.4209 15.54 24.2813 15.8175V15.6094C24.2813 15.1494 24.464 14.7082 24.7892 14.383C25.1145 14.0577 25.5556 13.875 26.0156 13.875C26.4756 13.875 26.9168 14.0577 27.242 14.383C27.5673 14.7082 27.75 15.1494 27.75 15.6094ZM26.0156 34.6875C25.5042 34.6858 25.0078 34.5147 24.6041 34.2009C24.2003 33.8871 23.9119 33.4483 23.7841 32.9531H28.2472C28.1193 33.4483 27.831 33.8871 27.4272 34.2009C27.0234 34.5147 26.527 34.6858 26.0156 34.6875ZM18.1589 31.7969L19.4886 30.473C19.5951 30.3627 19.6551 30.2158 19.6563 30.0625V23.125C19.6563 21.4384 20.3263 19.8209 21.5189 18.6282C22.7115 17.4356 24.329 16.7656 26.0156 16.7656C27.7022 16.7656 29.3198 17.4356 30.5124 18.6282C31.705 19.8209 32.375 21.4384 32.375 23.125V30.0625C32.3761 30.2158 32.4362 30.3627 32.5427 30.473L33.8723 31.7969H18.1589Z" fill="white"/>
<path d="M8.67188 10.4062H5.20312C5.0498 10.4062 4.90275 10.4672 4.79433 10.5756C4.68591 10.684 4.625 10.831 4.625 10.9844V14.4531C4.625 14.6065 4.68591 14.7535 4.79433 14.8619C4.90275 14.9703 5.0498 15.0312 5.20312 15.0312H8.67188C8.8252 15.0312 8.97225 14.9703 9.08067 14.8619C9.18909 14.7535 9.25 14.6065 9.25 14.4531V10.9844C9.25 10.831 9.18909 10.684 9.08067 10.5756C8.97225 10.4672 8.8252 10.4062 8.67188 10.4062ZM8.09375 13.875H5.78125V11.5625H8.09375V13.875Z" fill="white"/>
<path d="M12.7188 10.4062C12.2614 10.4062 11.8143 10.5419 11.434 10.796C11.0537 11.0501 10.7573 11.4112 10.5823 11.8338C10.4073 12.2563 10.3615 12.7213 10.4507 13.1699C10.5399 13.6185 10.7602 14.0305 11.0836 14.3539C11.407 14.6773 11.819 14.8976 12.2676 14.9868C12.7162 15.076 13.1812 15.0303 13.6037 14.8552C14.0263 14.6802 14.3874 14.3838 14.6415 14.0035C14.8956 13.6232 15.0313 13.1761 15.0313 12.7188C15.0313 12.1054 14.7876 11.5172 14.3539 11.0836C13.9203 10.6499 13.3321 10.4062 12.7188 10.4062ZM12.7188 13.875C12.4901 13.875 12.2665 13.8072 12.0764 13.6801C11.8862 13.5531 11.738 13.3725 11.6505 13.1612C11.563 12.95 11.5401 12.7175 11.5847 12.4932C11.6293 12.2689 11.7395 12.0629 11.9012 11.9012C12.0629 11.7395 12.2689 11.6293 12.4932 11.5847C12.7175 11.5401 12.95 11.563 13.1612 11.6505C13.3725 11.738 13.5531 11.8862 13.6801 12.0764C13.8072 12.2665 13.875 12.4901 13.875 12.7188C13.875 13.0254 13.7532 13.3195 13.5363 13.5363C13.3195 13.7532 13.0254 13.875 12.7188 13.875Z" fill="white"/>
<path d="M20.8301 12.7009C20.8301 12.2436 20.6945 11.7965 20.4404 11.4162C20.1863 11.0359 19.8251 10.7395 19.4025 10.5645C18.98 10.3894 18.515 10.3436 18.0664 10.4329C17.6179 10.5221 17.2058 10.7423 16.8824 11.0657C16.559 11.3892 16.3387 11.8012 16.2495 12.2498C16.1603 12.6984 16.2061 13.1633 16.3811 13.5859C16.5561 14.0084 16.8525 14.3696 17.2328 14.6237C17.6131 14.8778 18.0602 15.0134 18.5176 15.0134C19.1307 15.0127 19.7184 14.7688 20.1519 14.3353C20.5854 13.9018 20.8293 13.314 20.8301 12.7009ZM17.3613 12.7009C17.3613 12.4722 17.4291 12.2487 17.5562 12.0586C17.6832 11.8684 17.8638 11.7202 18.0751 11.6327C18.2864 11.5452 18.5189 11.5223 18.7432 11.5669C18.9674 11.6115 19.1735 11.7216 19.3352 11.8833C19.4969 12.045 19.607 12.2511 19.6516 12.4754C19.6962 12.6996 19.6733 12.9321 19.5858 13.1434C19.4983 13.3547 19.3501 13.5353 19.16 13.6623C18.9698 13.7894 18.7463 13.8572 18.5176 13.8572C18.2109 13.8572 17.9168 13.7354 17.7 13.5185C17.4831 13.3017 17.3613 13.0076 17.3613 12.7009Z" fill="white"/>
<path d="M12.7188 16.1875C12.2614 16.1875 11.8143 16.3231 11.434 16.5772C11.0537 16.8313 10.7573 17.1925 10.5823 17.615C10.4073 18.0376 10.3615 18.5026 10.4507 18.9511C10.5399 19.3997 10.7602 19.8118 11.0836 20.1352C11.407 20.4586 11.819 20.6788 12.2676 20.7681C12.7162 20.8573 13.1812 20.8115 13.6037 20.6365C14.0263 20.4614 14.3874 20.165 14.6415 19.7848C14.8956 19.4045 15.0313 18.9574 15.0313 18.5C15.0313 17.8867 14.7876 17.2985 14.3539 16.8648C13.9203 16.4311 13.3321 16.1875 12.7188 16.1875ZM12.7188 19.6563C12.4901 19.6563 12.2665 19.5884 12.0764 19.4614C11.8862 19.3343 11.738 19.1538 11.6505 18.9425C11.563 18.7312 11.5401 18.4987 11.5847 18.2744C11.6293 18.0501 11.7395 17.8441 11.9012 17.6824C12.0629 17.5207 12.2689 17.4106 12.4932 17.366C12.7175 17.3214 12.95 17.3443 13.1612 17.4318C13.3725 17.5193 13.5531 17.6675 13.6801 17.8576C13.8072 18.0478 13.875 18.2713 13.875 18.5C13.875 18.8067 13.7532 19.1008 13.5363 19.3176C13.3195 19.5344 13.0254 19.6563 12.7188 19.6563Z" fill="white"/>
<path d="M8.67188 16.1875H5.20312C5.0498 16.1875 4.90275 16.2484 4.79433 16.3568C4.68591 16.4652 4.625 16.6123 4.625 16.7656V20.2344C4.625 20.3877 4.68591 20.5348 4.79433 20.6432C4.90275 20.7516 5.0498 20.8125 5.20312 20.8125H8.67188C8.8252 20.8125 8.97225 20.7516 9.08067 20.6432C9.18909 20.5348 9.25 20.3877 9.25 20.2344V16.7656C9.25 16.6123 9.18909 16.4652 9.08067 16.3568C8.97225 16.2484 8.8252 16.1875 8.67188 16.1875ZM8.09375 19.6562H5.78125V17.3438H8.09375V19.6562Z" fill="white"/>
<path d="M12.7188 21.9688C12.2614 21.9688 11.8143 22.1044 11.434 22.3585C11.0537 22.6126 10.7573 22.9737 10.5823 23.3963C10.4073 23.8188 10.3615 24.2838 10.4507 24.7324C10.5399 25.181 10.7602 25.593 11.0836 25.9164C11.407 26.2398 11.819 26.4601 12.2676 26.5493C12.7162 26.6385 13.1812 26.5928 13.6037 26.4177C14.0263 26.2427 14.3874 25.9463 14.6415 25.566C14.8956 25.1857 15.0313 24.7386 15.0313 24.2813C15.0313 23.6679 14.7876 23.0797 14.3539 22.6461C13.9203 22.2124 13.3321 21.9688 12.7188 21.9688ZM12.7188 25.4375C12.4901 25.4375 12.2665 25.3697 12.0764 25.2426C11.8862 25.1156 11.738 24.935 11.6505 24.7237C11.563 24.5125 11.5401 24.28 11.5847 24.0557C11.6293 23.8314 11.7395 23.6254 11.9012 23.4637C12.0629 23.302 12.2689 23.1918 12.4932 23.1472C12.7175 23.1026 12.95 23.1255 13.1612 23.213C13.3725 23.3005 13.5531 23.4487 13.6801 23.6389C13.8072 23.829 13.875 24.0526 13.875 24.2813C13.875 24.5879 13.7532 24.882 13.5363 25.0988C13.3195 25.3157 13.0254 25.4375 12.7188 25.4375Z" fill="white"/>
<path d="M8.67188 21.9688H5.20312C5.0498 21.9688 4.90275 22.0297 4.79433 22.1381C4.68591 22.2465 4.625 22.3935 4.625 22.5469V26.0156C4.625 26.169 4.68591 26.316 4.79433 26.4244C4.90275 26.5328 5.0498 26.5938 5.20312 26.5938H8.67188C8.8252 26.5938 8.97225 26.5328 9.08067 26.4244C9.18909 26.316 9.25 26.169 9.25 26.0156V22.5469C9.25 22.3935 9.18909 22.2465 9.08067 22.1381C8.97225 22.0297 8.8252 21.9688 8.67188 21.9688ZM8.09375 25.4375H5.78125V23.125H8.09375V25.4375Z" fill="white"/>
</svg>
